<svg version="1.1" id="Layer_1" xmlns="http://www.w3.org/2000/svg" xmlns:xlink="http://www.w3.org/1999/xlink" x="0px" y="0px"
	 width="100%" viewBox="0 0 1024 1024" enable-background="new 0 0 1024 1024" xml:space="preserve">
<path fill="#000000" opacity="1.000000" stroke="none" 
	d="
M1025.000000,498.531738 
	C1014.753662,525.427734 980.592957,535.033875 958.126709,517.805176 
	C937.807068,502.222504 939.420044,473.039001 961.334351,459.769867 
	C977.169128,450.181854 998.959656,451.639862 1013.440918,463.169403 
	C1018.843262,467.470581 1022.219360,473.093506 1024.811768,479.710449 
	C1025.000000,486.021149 1025.000000,492.042297 1025.000000,498.531738 
M992.227478,476.078217 
	C990.814514,475.595032 989.435791,474.903381 987.982666,474.665070 
	C981.921936,473.671021 976.598206,475.284241 972.889099,480.263428 
	C968.950256,485.550842 968.953064,491.633240 971.661011,497.329803 
	C974.152283,502.570404 978.942810,504.847717 984.781311,504.829041 
	C991.774597,504.806671 997.048706,501.355865 999.162354,495.333252 
	C1001.641174,488.270081 999.379944,481.459656 992.227478,476.078217 
z"/>
<path fill="#000000" opacity="1.000000" stroke="none" 
	d="
M1.000000,607.333313 
	C3.700281,605.942017 4.785253,604.139221 4.212468,601.144653 
	C3.397225,596.882385 5.532205,592.206848 1.941694,588.209412 
	C5.640531,586.246094 8.320989,586.585144 10.095492,590.141174 
	C11.490409,592.936523 12.134574,596.100647 14.179996,598.661072 
	C19.163523,596.034607 16.802467,584.780518 27.042774,587.760498 
	C22.842628,594.831909 24.441715,601.484924 26.679823,608.468872 
	C24.303041,609.900452 21.806917,609.217957 18.861467,608.831604 
	C20.088329,605.018188 21.471653,601.617554 20.253983,596.942688 
	C18.887445,600.129578 17.969000,602.662659 16.738430,605.033813 
	C15.445426,607.525208 13.693654,607.586487 12.341933,605.088013 
	C11.085766,602.766052 10.149483,600.271118 8.803082,597.247620 
	C8.184725,601.298767 7.634621,604.700806 10.524501,607.724060 
	C7.742478,610.346680 4.690144,609.015137 1.437032,609.061035 
	C1.000000,608.555542 1.000000,608.111084 1.000000,607.333313 
z"/>
<path fill="#000000" opacity="1.000000" stroke="none" 
	d="
M313.097656,473.311462 
	C325.414764,451.018433 353.492554,448.659485 370.056305,460.442902 
	C376.045380,464.703522 378.536926,468.276154 382.562714,479.065765 
	C391.817780,452.164337 418.183105,447.624481 436.758118,460.167908 
	C437.492462,455.738861 440.505676,455.336090 444.217224,455.581512 
	C448.530243,455.866669 452.880280,455.767975 457.206635,455.617523 
	C460.288757,455.510376 461.922150,456.580688 461.918030,459.830841 
	C461.892639,479.822632 461.896271,499.814423 461.903992,519.806213 
	C461.905121,522.685242 460.559357,524.092529 457.641296,524.069031 
	C452.310669,524.026062 446.971344,523.862671 441.651154,524.098999 
	C437.305603,524.292114 437.920044,520.871521 437.262665,518.140625 
	C434.095581,520.005249 431.396973,521.971558 428.412170,523.289795 
	C409.513031,531.636963 387.638275,520.110168 382.946167,499.054382 
	C381.918640,494.443237 380.065887,493.187439 375.632843,493.281036 
	C363.476135,493.537659 351.310455,493.345276 339.148438,493.382355 
	C334.199493,493.397430 333.526825,494.516357 335.584656,498.974854 
	C338.846527,506.042053 351.170410,509.321411 358.352753,503.563690 
	C364.411713,498.706543 368.714783,500.414398 374.237854,503.378265 
	C383.056030,508.110413 383.511871,508.808319 376.131470,515.478271 
	C363.871765,526.557861 349.207458,528.608154 334.076538,523.733765 
	C319.109131,518.912048 310.737305,507.661591 309.006927,491.944550 
	C308.300995,485.532532 309.976318,479.393341 313.097656,473.311462 
M427.432587,504.243347 
	C435.544342,501.075470 439.245636,494.408783 437.527985,486.059631 
	C436.171112,479.463959 429.611938,474.334473 422.611694,474.394562 
	C414.862305,474.461090 408.926666,479.523529 407.825317,487.822357 
	C406.492645,497.864166 413.676300,506.784851 427.432587,504.243347 
M347.418518,470.014374 
	C339.226685,470.503876 336.166870,472.936157 336.058136,479.570374 
	C342.630493,479.570374 349.209534,479.612213 355.787537,479.549438 
	C358.354279,479.524933 358.919434,478.116241 357.881287,475.908844 
	C355.967255,471.838989 352.521729,470.274139 347.418518,470.014374 
z"/>
<path fill="#000000" opacity="1.000000" stroke="none" 
	d="
M577.524048,456.251892 
	C586.345703,452.121460 594.726379,452.919952 602.883484,456.928864 
	C610.973328,460.904724 615.039185,467.711639 615.166504,476.597229 
	C615.371704,490.918762 615.183716,505.245605 615.307007,519.568909 
	C615.335144,522.843872 613.957397,524.085876 610.864929,524.046814 
	C605.868774,523.983643 600.869080,523.910767 595.875427,524.030457 
	C592.189636,524.118774 590.920410,522.450012 590.949036,518.880859 
	C591.041321,507.389221 591.070740,495.893311 590.846863,484.404449 
	C590.716614,477.718689 586.923401,473.737030 581.032776,473.337158 
	C573.875000,472.851196 569.485107,477.114410 569.389832,485.033020 
	C569.257690,496.024811 569.155640,507.024231 569.436768,518.010254 
	C569.553528,522.570923 568.109863,524.398376 563.503357,524.099670 
	C559.356934,523.830811 555.166016,523.848022 551.018188,524.110107 
	C546.517273,524.394470 544.752686,522.718628 544.835632,518.097351 
	C545.035828,506.941833 544.987305,495.776947 544.779236,484.620667 
	C544.640503,477.182617 540.555908,473.238007 533.713928,473.325195 
	C528.524048,473.391327 525.460938,475.878845 524.099182,481.016113 
	C523.010925,485.121582 523.461365,489.301208 523.433594,493.448730 
	C523.375488,502.109131 523.284424,510.776306 523.570251,519.428711 
	C523.691040,523.085754 522.236572,524.167908 518.939270,524.095642 
	C514.110962,523.989868 509.275269,523.921265 504.450043,524.071411 
	C500.784149,524.185425 499.503662,522.686218 499.538513,519.033081 
	C499.673615,504.876373 499.575531,490.717438 499.570404,476.559357 
	C499.568390,471.067963 499.683563,465.574127 499.550537,460.086121 
	C499.474335,456.942780 500.572845,455.547882 503.871613,455.630280 
	C510.171417,455.787628 516.477905,455.675964 522.810364,455.675964 
	C523.398315,457.513397 523.845825,458.911926 524.424988,460.722015 
	C539.240662,450.070007 553.089966,451.068542 566.250366,464.314178 
	C569.754395,461.793243 573.472534,459.118317 577.524048,456.251892 
z"/>
<path fill="#000000" opacity="1.000000" stroke="none" 
	d="
M210.797318,454.735168 
	C214.547287,456.229767 217.889236,457.638885 221.236252,459.050140 
	C223.288452,457.261749 222.615860,454.956848 222.627823,452.906372 
	C222.700638,440.422089 222.818497,427.934753 222.602005,415.453979 
	C222.526352,411.093048 223.969559,409.424194 228.360245,409.722656 
	C232.667740,410.015503 237.031189,410.024628 241.334518,409.694489 
	C246.069778,409.331207 247.324203,411.368011 247.303162,415.810852 
	C247.162781,445.440430 247.222321,475.070923 247.216171,504.701141 
	C247.215134,509.694977 247.122009,514.690857 247.239334,519.681885 
	C247.315018,522.901611 245.868942,524.206604 242.750900,524.153809 
	C238.091248,524.074768 233.427704,524.031494 228.769318,524.133545 
	C224.891190,524.218384 221.934082,523.466614 223.041153,517.277466 
	C215.338593,523.766113 207.562134,526.558228 198.742905,525.909119 
	C190.092606,525.272339 182.644119,522.083679 176.715790,515.577637 
	C165.629578,503.411102 163.738998,483.901337 172.310516,469.513733 
	C179.983414,456.634491 195.046860,450.754486 210.797318,454.735168 
M212.461731,504.267639 
	C212.933899,504.103699 213.420517,503.972412 213.876068,503.770905 
	C221.550797,500.376190 224.824493,492.984222 222.317978,484.728760 
	C220.262085,477.957458 213.164230,473.539856 205.905350,474.513794 
	C198.097733,475.561279 193.179413,481.498657 193.185043,489.869659 
	C193.192078,500.314880 199.752975,505.503540 212.461731,504.267639 
z"/>
<path fill="#000000" opacity="1.000000" stroke="none" 
	d="
M791.543945,502.355347 
	C792.688354,503.523041 793.935974,504.114807 794.981873,503.659485 
	C800.748108,501.149475 801.635620,505.211700 802.715637,509.168823 
	C803.328552,511.414429 803.741699,513.783020 804.769714,515.833008 
	C807.170959,520.621399 805.154114,522.728088 800.644653,524.068481 
	C794.610840,525.862000 788.574463,526.486023 782.390930,525.175049 
	C772.772217,523.135986 766.135803,514.707336 765.737854,503.527557 
	C765.465332,495.870361 765.409119,488.187927 765.707825,480.534393 
	C765.889587,475.877258 764.584656,473.596405 759.601013,474.187653 
	C758.182922,474.355927 756.683472,473.838379 755.082886,473.616119 
	C754.234131,474.907104 753.337646,476.270721 752.358582,477.759949 
	C749.142151,477.086975 746.484375,475.282349 743.250305,475.039551 
	C732.474243,474.230469 726.729065,479.015045 726.495972,489.917267 
	C726.296570,499.241516 726.395447,508.583771 726.751282,517.903198 
	C726.923218,522.408203 725.565491,524.395569 720.877075,524.114075 
	C716.392822,523.844971 711.878906,523.950500 707.381836,524.054565 
	C704.082581,524.130920 702.567566,522.956177 702.586365,519.408386 
	C702.690308,499.743286 702.680603,480.077209 702.589478,460.412018 
	C702.574036,457.087463 703.574219,455.520630 707.142578,455.625549 
	C713.281982,455.806122 719.430542,455.675568 725.232422,455.675568 
	C727.372437,457.845398 725.708374,460.726868 727.931763,462.755554 
	C734.175903,456.048981 741.800476,452.625702 751.116882,453.777771 
	C754.416260,454.185730 757.476501,455.629730 760.885315,455.719360 
	C764.311157,455.809448 765.745117,454.571472 765.647522,451.090485 
	C765.498108,445.761810 765.780273,440.419281 765.570984,435.094757 
	C765.439697,431.754944 766.512146,430.089722 770.000244,430.137604 
	C774.998047,430.206177 779.997681,430.140961 784.996582,430.123444 
	C788.076721,430.112671 789.497620,431.484772 789.408752,434.709229 
	C789.261841,440.038025 789.527039,445.379333 789.337341,450.705383 
	C789.208801,454.315887 790.455200,455.699463 794.210144,455.733032 
	C804.021423,455.820801 804.020813,455.975250 803.987000,465.802734 
	C803.982971,466.969299 803.859070,468.146393 803.973816,469.300415 
	C804.337219,472.956573 802.801270,474.355255 799.092285,474.301147 
	C788.448853,474.145874 789.389832,472.975189 789.437744,484.389404 
	C789.462585,490.317963 788.351868,496.423523 791.543945,502.355347 
z"/>
<path fill="#000000" opacity="1.000000" stroke="none" 
	d="
M847.291199,455.360077 
	C850.909851,456.424377 853.574524,458.489197 856.905701,460.330627 
	C857.408875,455.861023 860.322266,455.412384 863.884644,455.606323 
	C867.869690,455.823334 871.897522,455.919556 875.866760,455.588989 
	C880.442505,455.207947 882.104187,456.954742 882.016785,461.504364 
	C881.812134,472.158722 881.937012,482.819458 881.935059,493.477631 
	C881.933533,501.637756 881.796326,509.801605 882.004822,517.956543 
	C882.117615,522.365356 880.669067,524.445801 875.988586,524.125854 
	C871.844299,523.842468 867.653992,523.861206 863.505920,524.110596 
	C859.386536,524.358337 856.980530,523.150208 857.760376,517.519348 
	C849.695129,523.631836 841.610840,526.677307 832.169128,525.666748 
	C822.787292,524.662781 815.504578,520.355530 809.722900,513.139465 
	C799.826050,500.787506 799.096802,482.286072 807.962769,468.708130 
	C816.493042,455.644257 830.352966,450.841431 847.291199,455.360077 
M833.199890,477.636383 
	C832.203674,478.745392 831.069092,479.759827 830.235046,480.979736 
	C826.590759,486.310028 826.881653,494.783203 830.784546,499.658203 
	C834.504395,504.304443 841.763916,506.141876 848.074646,504.034515 
	C854.451782,501.904938 857.822937,496.820190 857.748596,489.443329 
	C857.621826,476.864197 845.413269,470.622589 833.199890,477.636383 
z"/>
<path fill="#000000" opacity="1.000000" stroke="none" 
	d="
M83.398582,478.001709 
	C83.392181,492.152252 83.289215,505.804291 83.446930,519.453308 
	C83.486763,522.901306 82.410873,524.333374 78.916939,524.195190 
	C74.595024,524.024170 70.257431,524.014221 65.934845,524.167236 
	C62.275089,524.296753 59.219124,523.826660 58.754433,518.406372 
	C47.708740,526.427490 36.246620,528.320312 24.071955,523.353149 
	C17.013477,520.473328 11.877748,515.350525 8.207497,508.762604 
	C-0.040231,493.958252 2.691823,473.926636 14.436378,462.573547 
	C25.842127,451.547943 42.443611,450.401276 58.082787,459.830475 
	C59.100426,455.502930 62.295364,455.385681 65.924728,455.578217 
	C70.572937,455.824768 75.245918,455.717010 79.904716,455.609680 
	C82.740273,455.544342 83.709702,456.787598 83.628059,459.528809 
	C83.449707,465.516846 83.463425,471.510651 83.398582,478.001709 
M52.559982,476.813446 
	C46.870529,473.346100 41.177612,473.408264 35.758221,477.226074 
	C30.675634,480.806641 28.781279,485.978668 29.616982,492.043213 
	C30.461452,498.171356 33.749256,502.445526 39.841793,504.249023 
	C46.920410,506.344421 54.490738,503.308044 57.792545,497.089294 
	C61.577824,489.959961 59.905933,482.772430 52.559982,476.813446 
z"/>
<path fill="#000000" opacity="1.000000" stroke="none" 
	d="
M627.038574,513.945679 
	C616.969116,502.677795 614.666992,489.945007 620.175110,476.585938 
	C626.122620,462.161377 638.311218,455.346069 653.382019,453.795197 
	C664.045044,452.697876 674.212585,454.574921 683.386047,460.714081 
	C705.173523,475.294769 704.532104,506.280884 682.082397,519.835144 
	C665.527039,529.830750 641.243103,527.334595 627.038574,513.945679 
M650.938293,476.236267 
	C650.126282,476.811523 649.251648,477.316315 648.512268,477.973297 
	C643.317993,482.588867 641.734131,490.213531 644.591980,496.656250 
	C647.128723,502.375031 652.864197,505.346558 660.276794,504.782562 
	C666.912048,504.277771 671.552551,500.077484 673.155518,492.900818 
	C674.409851,487.284424 672.993774,482.295685 668.742859,478.402161 
	C663.675049,473.760468 657.822388,473.270813 650.938293,476.236267 
z"/>
<path fill="#000000" opacity="1.000000" stroke="none" 
	d="
M153.982529,524.155884 
	C140.699860,524.129517 140.698471,524.129517 140.689346,511.548828 
	C140.683426,503.385834 140.753372,495.222015 140.659775,487.060059 
	C140.558472,478.225830 135.668762,472.276794 128.769348,472.650299 
	C122.993988,472.962952 115.693245,478.414886 116.088791,487.316162 
	C116.546844,497.624023 116.034431,507.971405 116.235733,518.295959 
	C116.317665,522.497742 115.099190,524.487610 110.593994,524.222534 
	C105.778542,523.939270 100.934700,524.067810 96.104660,524.128723 
	C93.001877,524.167847 91.612900,522.939880 91.626076,519.681274 
	C91.706940,499.690674 91.702225,479.699432 91.632385,459.708740 
	C91.621857,456.694824 92.803154,455.539764 95.774460,455.609924 
	C100.935852,455.731812 106.102913,455.688995 111.266327,455.620300 
	C114.202423,455.581238 116.875961,455.716125 116.395996,459.472778 
	C118.010506,460.176086 118.807983,459.433167 119.558060,458.831696 
	C130.810410,449.808594 147.886810,453.680847 156.436905,460.166656 
	C162.999893,465.145172 165.074768,472.237152 165.186508,479.977905 
	C165.364441,492.302917 165.217438,504.632599 165.203201,516.960327 
	C165.194916,524.134705 165.190826,524.135193 157.974152,524.156067 
	C156.807968,524.159424 155.641754,524.156250 153.982529,524.155884 
z"/>
<path fill="#000000" opacity="1.000000" stroke="none" 
	d="
M302.753601,453.689514 
	C303.537201,453.720673 303.877533,453.703003 304.201080,453.768341 
	C315.446686,456.040680 315.823975,456.792053 310.833954,466.934448 
	C310.613373,467.382721 310.408508,467.838745 310.187500,468.286804 
	C308.788879,471.122803 307.935272,474.478180 305.854675,476.666534 
	C302.980286,479.689789 300.316132,475.493744 297.342224,475.167725 
	C285.635468,473.884399 279.520569,478.885956 279.372589,490.739532 
	C279.254028,500.235596 279.214203,509.736542 279.394897,519.230469 
	C279.466248,522.979370 277.966766,524.293091 274.394836,524.181274 
	C269.400635,524.024841 264.398621,524.071472 259.400452,524.105469 
	C256.280731,524.126709 254.871521,522.713257 254.877350,519.558655 
	C254.913971,499.730774 254.912140,479.902740 254.861389,460.074890 
	C254.853455,456.970886 255.997131,455.472595 259.278778,455.602539 
	C263.271393,455.760651 267.279755,455.760376 271.272766,455.606964 
	C275.916229,455.428558 280.723053,454.764221 279.406464,463.253082 
	C286.627960,456.689178 293.541992,452.687683 302.753601,453.689514 
z"/>
<path fill="#000000" opacity="1.000000" stroke="none" 
	d="
M941.509888,475.380402 
	C940.383606,477.953522 938.907410,478.087128 936.952515,476.919037 
	C934.606873,475.517517 931.969482,475.160126 929.285156,475.013489 
	C920.159424,474.515076 914.460510,479.702728 914.327271,488.966095 
	C914.186096,498.781830 914.117676,508.605316 914.360291,518.416931 
	C914.469666,522.839905 912.791687,524.374634 908.521118,524.148560 
	C903.874451,523.902649 899.203857,523.997253 894.546875,524.096741 
	C891.212463,524.167908 889.725403,522.834290 889.738037,519.383606 
	C889.810486,499.582001 889.808105,479.779938 889.737488,459.978333 
	C889.725952,456.729492 891.083313,455.536896 894.236511,455.638092 
	C898.558289,455.776703 902.896851,455.830963 907.212402,455.610840 
	C912.080750,455.362488 915.907288,455.901672 914.038391,462.319794 
	C916.628113,462.808746 917.309143,460.941345 918.423950,459.954041 
	C925.990662,453.252686 936.815430,451.666046 945.965210,455.812225 
	C949.136536,457.249298 949.683655,459.036011 948.057373,462.066132 
	C945.778076,466.313171 943.797729,470.720642 941.509888,475.380402 
z"/>
<path fill="#000000" opacity="1.000000" stroke="none" 
	d="
M278.043640,600.118164 
	C278.481934,601.398376 279.170074,602.043701 279.549408,600.625488 
	C280.636597,596.560913 282.847931,592.571533 280.447693,588.117737 
	C283.443481,586.750610 285.960846,586.158997 288.676361,588.546875 
	C284.829376,593.520020 284.079071,599.550781 282.045105,605.097473 
	C281.445129,606.733643 281.243439,609.007019 278.846405,609.017517 
	C276.135864,609.029419 276.058960,606.666809 275.555847,604.764648 
	C274.928223,602.391541 274.252808,600.031067 273.225525,596.319336 
	C272.146606,600.438965 271.426147,603.266846 270.660309,606.082336 
	C270.264282,607.538391 269.885742,609.088440 267.909698,609.094604 
	C266.042236,609.100403 265.350555,607.710999 264.884613,606.260254 
	C263.816864,602.935669 262.846649,599.579773 261.840118,596.235596 
	C261.036407,593.565491 260.509277,590.762817 257.708618,588.865295 
	C260.449707,586.269104 262.973389,586.792175 266.027283,587.947632 
	C263.751953,592.778992 266.260254,596.840027 268.133423,601.193420 
	C269.030701,597.529724 269.906525,593.860657 270.836731,590.205322 
	C271.167358,588.906067 271.582581,587.464600 273.228394,587.411987 
	C274.998871,587.355408 275.182220,588.905884 275.509674,590.183350 
	C276.333008,593.395386 277.137909,596.612183 278.043640,600.118164 
z"/>
<path fill="#000000" opacity="1.000000" stroke="none" 
	d="
M189.754883,598.368652 
	C191.274841,594.674500 190.960785,591.396606 187.965775,588.532959 
	C191.295898,586.407837 193.930267,586.316467 196.979019,588.435791 
	C192.864120,592.981079 195.725510,598.337402 194.814529,603.247803 
	C194.442810,605.251404 195.344620,608.078308 192.729584,608.884583 
	C190.007965,609.723755 189.237427,606.917114 188.053375,605.251831 
	C186.040817,602.421326 184.177460,599.484802 181.717209,595.790710 
	C180.747421,600.658875 180.600540,604.502869 183.548538,608.123413 
	C180.429535,609.791870 177.965469,609.558960 175.146729,608.486694 
	C177.555862,601.749512 177.908051,595.063354 175.062408,588.137268 
	C178.437332,586.000244 180.816589,587.266357 182.991745,590.132385 
	C185.144150,592.968445 186.183624,596.678528 189.754883,598.368652 
z"/>
<path fill="#000000" opacity="1.000000" stroke="none" 
	d="
M324.982605,587.598755 
	C329.247894,590.204712 331.845490,603.227417 329.174225,606.719543 
	C327.749939,608.581482 325.771576,609.375366 323.487854,609.263489 
	C320.079681,609.096436 316.571625,609.990662 313.028870,608.477539 
	C315.604797,601.676697 315.803406,595.003113 313.002136,588.074280 
	C316.794281,586.190491 320.682190,586.871338 324.982605,587.598755 
M323.925964,599.702454 
	C321.632507,599.456787 319.535126,599.608215 319.205414,602.542419 
	C319.051819,603.909424 319.284210,605.301086 320.922211,605.625488 
	C322.727417,605.982971 324.617279,606.012695 325.853271,604.318726 
	C327.235443,602.424438 326.556366,600.959045 323.925964,599.702454 
M321.559174,595.824524 
	C323.312439,595.871399 325.080811,595.717468 325.418915,593.587036 
	C325.673096,591.985413 324.349060,591.278564 323.053955,590.799255 
	C321.755737,590.318787 320.252014,589.985474 319.545959,591.501038 
	C318.806763,593.087646 318.805939,594.786926 321.559174,595.824524 
z"/>
<path fill="#000000" opacity="1.000000" stroke="none" 
	d="
M338.216461,608.480835 
	C336.062622,609.175049 334.360077,609.346741 333.993286,606.992310 
	C333.697235,605.092224 333.115936,602.915344 334.891998,601.388245 
	C335.981781,600.451233 337.107452,601.071960 337.844269,602.143494 
	C338.695435,603.381226 339.442047,604.767944 340.947815,605.256287 
	C343.246185,606.001709 346.032135,606.499634 346.968811,603.756470 
	C347.861267,601.142822 345.020508,600.870117 343.239899,600.229126 
	C342.147797,599.835999 341.004395,599.586731 339.907135,599.206238 
	C336.398376,597.989624 333.946564,595.807190 334.909576,591.808716 
	C335.839661,587.947083 339.042755,586.880554 342.634827,586.939697 
	C344.274994,586.966614 345.916321,587.517334 347.545227,587.464478 
	C349.042938,587.415710 350.253510,587.515076 350.640747,589.151306 
	C351.066711,590.951294 351.339417,592.883606 350.062683,594.404358 
	C349.116760,595.531128 347.928619,595.062744 347.152893,593.946655 
	C346.395844,592.857422 345.787262,591.693726 344.434448,591.156372 
	C342.562958,590.413147 340.596222,590.197388 339.641724,592.185364 
	C338.664459,594.220886 340.405640,595.132141 342.076324,595.692505 
	C343.647217,596.219360 345.287476,596.555237 346.827789,597.153870 
	C350.083313,598.419067 352.236969,600.663940 351.531891,604.362122 
	C350.884094,607.759888 348.409607,609.234497 345.000092,609.317566 
	C342.817352,609.370789 340.696716,609.149231 338.216461,608.480835 
z"/>
<path fill="#000000" opacity="1.000000" stroke="none" 
	d="
M99.395805,592.458008 
	C97.201187,589.885376 94.901482,589.571960 92.737061,591.634644 
	C91.781883,592.544983 91.855675,594.188232 92.993477,595.253052 
	C94.761147,596.907349 98.158546,595.203857 99.367760,598.151978 
	C98.788422,600.183533 97.124001,600.030701 95.699142,600.093994 
	C93.303703,600.200562 91.696884,601.069885 92.277802,603.722107 
	C92.904884,606.584961 95.375206,605.975464 97.153358,605.540283 
	C98.615395,605.182556 99.846466,603.880981 101.160820,603.010376 
	C103.510414,604.120422 103.282753,605.928528 102.683159,607.713013 
	C102.156685,609.279907 100.664375,609.315430 99.335083,609.273682 
	C94.961906,609.136597 90.510887,609.850281 85.964622,608.666199 
	C88.431892,601.620117 88.898933,595.111633 86.003761,588.571228 
	C88.387711,586.787720 99.785316,586.062561 101.866173,587.692871 
	C103.434723,588.921875 103.410782,590.616455 102.764740,592.219055 
	C102.102478,593.861877 100.893517,593.905945 99.395805,592.458008 
z"/>
<path fill="#000000" opacity="1.000000" stroke="none" 
	d="
M108.540726,609.215820 
	C106.440552,608.715149 106.172554,607.873291 106.974724,606.246399 
	C109.909271,600.294617 109.623825,594.367676 106.084602,587.793823 
	C111.310806,586.411194 116.348022,586.038025 120.973961,588.571655 
	C124.020401,590.240173 125.285660,594.004517 123.181641,596.786194 
	C120.040428,600.939270 121.295013,603.619995 124.541595,606.471863 
	C124.856445,606.748413 124.874382,607.363098 125.127800,608.107788 
	C122.826683,609.877502 120.969696,609.498291 119.417686,607.147705 
	C118.872330,606.321716 118.483772,605.391418 118.033211,604.503906 
	C117.285019,603.030090 116.714272,601.361816 114.667923,601.252502 
	C113.787544,601.205383 113.000595,601.481628 112.647469,602.366394 
	C111.877747,604.294983 113.000504,605.468140 114.338104,606.597473 
	C114.663338,606.872131 114.732292,607.450256 114.946243,607.952576 
	C113.262146,610.095215 110.953354,609.015991 108.540726,609.215820 
M112.494537,592.255310 
	C112.620972,594.342041 111.084457,597.309448 114.943718,597.507751 
	C116.588722,597.592285 118.312447,597.040039 119.226929,595.437988 
	C119.952194,594.167419 119.859291,592.666016 118.590721,591.869446 
	C116.796799,590.742981 114.804451,589.505981 112.494537,592.255310 
z"/>
<path fill="#000000" opacity="1.000000" stroke="none" 
	d="
M214.538696,590.568970 
	C217.231293,596.597961 217.926758,603.108215 222.863007,607.788757 
	C220.259567,610.257568 217.717331,608.954590 214.841888,609.108093 
	C215.426376,605.482117 216.749283,601.960632 211.149582,602.070190 
	C205.855301,602.173828 207.773514,605.663818 207.817856,608.364746 
	C205.135269,609.647827 202.717911,609.737122 199.778839,608.150208 
	C202.323730,605.157104 204.171600,602.159546 205.108871,598.657410 
	C206.029816,595.216431 208.466187,592.092896 206.689774,588.097534 
	C210.221375,586.544861 212.792221,586.609375 214.538696,590.568970 
z"/>
<path fill="#000000" opacity="1.000000" stroke="none" 
	d="
M144.794708,594.276550 
	C142.556564,595.677979 142.075760,593.961060 141.150986,592.834229 
	C138.784927,589.951233 136.279373,589.770630 133.559952,592.711487 
	C134.630920,595.898010 137.570068,595.978210 139.960907,596.722290 
	C143.779251,597.910645 146.991867,599.663025 146.139389,604.319519 
	C145.290253,608.957642 141.600555,609.416016 137.660980,609.360840 
	C135.078888,609.324585 132.646500,607.020020 130.357635,609.207520 
	C128.094818,607.563538 128.797348,605.588684 128.713837,603.849243 
	C128.658554,602.697632 128.696609,601.396423 130.186279,601.059082 
	C131.342285,600.797302 131.981735,601.596924 132.574448,602.466370 
	C133.741623,604.178589 135.241608,605.487915 137.402817,605.662903 
	C139.076782,605.798462 140.966583,605.916870 141.470215,603.776733 
	C141.921356,601.859619 140.298050,601.208496 138.903778,600.642700 
	C137.054153,599.892151 135.136398,599.309448 133.286987,598.558411 
	C130.669525,597.495422 129.461105,595.562134 129.667175,592.672058 
	C129.876358,589.738220 131.582092,588.294434 134.171509,587.370239 
	C137.499878,586.182373 140.911285,587.098206 143.944550,587.765991 
	C146.534515,588.336182 145.158096,591.718506 144.794708,594.276550 
z"/>
<path fill="#000000" opacity="1.000000" stroke="none" 
	d="
M403.784027,591.986084 
	C402.382538,590.105713 400.655945,590.385864 399.012054,590.383728 
	C397.463531,590.381714 396.481964,591.037415 396.357605,592.687439 
	C396.233917,594.328552 396.654663,595.566040 398.398224,596.203857 
	C400.043518,596.805908 402.148346,595.999146 403.445740,597.852234 
	C403.359894,600.008179 401.631500,599.829529 400.245178,600.039978 
	C398.649689,600.282104 396.744781,599.945679 396.404572,602.273010 
	C396.259949,603.262451 396.163757,604.379395 397.037354,605.048828 
	C398.638458,606.275635 400.496552,605.861877 402.290619,605.549072 
	C403.805511,605.284851 404.025909,603.003113 405.867737,603.216553 
	C408.359161,607.737976 407.691101,609.279419 402.897186,609.253296 
	C398.818268,609.231079 394.653168,609.972412 390.240021,608.511108 
	C391.421234,605.119690 392.383850,601.892334 392.100616,598.391724 
	C391.824646,594.980957 392.386139,591.470337 389.597473,588.017395 
	C395.184387,586.302246 400.265442,586.824585 405.263123,587.359192 
	C407.758209,587.626099 407.493713,590.057861 407.137756,591.775879 
	C406.659882,594.082397 405.304413,593.699402 403.784027,591.986084 
z"/>
<path fill="#000000" opacity="1.000000" stroke="none" 
	d="
M157.809204,587.415771 
	C165.139160,586.409790 170.093307,589.618713 171.177689,595.710083 
	C172.254089,601.756653 169.209915,607.539001 164.178833,609.004089 
	C158.062912,610.785095 152.623795,608.107422 150.502563,602.271362 
	C148.184540,595.893860 150.755814,590.420715 157.809204,587.415771 
M166.388824,594.229370 
	C165.968399,593.718933 165.609421,593.137695 165.117096,592.710022 
	C162.833038,590.726074 160.392410,589.583008 157.504410,591.573486 
	C153.948044,594.024536 153.491089,597.532532 154.551437,601.284729 
	C155.343094,604.086121 157.418152,605.661560 160.468170,605.682678 
	C164.256943,605.708923 166.064194,603.348267 167.213455,600.145081 
	C167.876389,598.297363 167.613419,596.566040 166.388824,594.229370 
z"/>
<path fill="#000000" opacity="1.000000" stroke="none" 
	d="
M300.429810,605.708008 
	C303.512726,606.269592 305.576172,605.177246 306.969116,603.009155 
	C309.820526,603.868774 309.330811,605.840454 308.952728,607.555786 
	C308.597137,609.169189 307.084625,609.328857 305.740204,609.262817 
	C301.243500,609.041809 296.619354,610.084106 292.029907,608.514038 
	C295.532318,601.505188 296.189575,595.056580 291.630829,587.831604 
	C297.210541,586.341919 302.644440,586.170471 307.700378,587.705017 
	C310.189270,588.460388 310.063141,591.605530 307.393066,593.888916 
	C304.950500,591.220032 301.271576,587.736084 299.059021,591.749695 
	C295.780121,597.697815 304.198792,594.648865 305.325928,598.040771 
	C305.085541,600.318909 303.114899,599.851013 301.595978,600.114136 
	C297.199890,600.875793 297.295715,602.888550 300.429810,605.708008 
z"/>
<path fill="#000000" opacity="1.000000" stroke="none" 
	d="
M65.505051,606.510864 
	C67.839325,600.148499 67.434441,594.230774 64.935097,587.864441 
	C69.705994,586.357666 74.415291,586.151978 78.909180,588.219604 
	C81.748878,589.526245 82.623932,592.378052 82.225922,595.452209 
	C81.807617,598.683167 79.720871,600.392334 76.701958,601.122253 
	C70.095337,602.719421 70.093498,602.711853 73.766891,607.722778 
	C69.955643,610.281250 67.036911,609.988464 65.505051,606.510864 
M78.101974,595.239075 
	C78.312355,591.706482 76.083122,590.311157 73.167236,590.719971 
	C70.454681,591.100281 70.742455,594.044128 71.432304,595.574402 
	C73.089264,599.250000 75.580292,598.197998 78.101974,595.239075 
z"/>
<path fill="#000000" opacity="1.000000" stroke="none" 
	d="
M378.883484,586.919556 
	C381.863922,587.212891 384.970490,585.869629 386.525909,588.912781 
	C387.363770,590.552002 387.268280,592.491394 385.339539,593.630981 
	C382.913147,593.871948 382.951202,590.213745 379.682068,590.904358 
	C378.734924,596.597656 378.226562,602.452148 380.938934,608.330688 
	C378.140015,609.716736 375.705597,609.662170 372.904022,608.309509 
	C375.807526,602.308167 375.323364,596.449768 374.020416,590.649597 
	C370.792847,590.598999 371.021545,593.312927 369.087219,593.717957 
	C366.683197,593.261780 366.876129,591.349487 367.169037,589.524963 
	C367.503632,587.440735 369.183197,587.047180 370.924408,586.993103 
	C373.418518,586.915771 375.915985,586.947205 378.883484,586.919556 
z"/>
<path fill="#000000" opacity="1.000000" stroke="none" 
	d="
M42.609001,609.250854 
	C40.311024,609.090576 38.211838,609.952026 36.349045,607.979309 
	C42.441124,599.282104 34.537571,594.591492 30.505898,588.457581 
	C32.902149,586.265381 35.444157,586.703308 38.420666,587.849121 
	C37.755871,590.907043 37.829399,593.751282 40.778824,595.817139 
	C43.040821,593.681702 43.770454,591.227722 42.550148,588.169678 
	C45.495010,586.602783 48.083218,586.056213 50.951344,588.886475 
	C48.408802,591.097412 46.478603,593.502686 45.020996,596.250854 
	C43.196777,599.690308 40.333939,602.968994 44.432205,606.886108 
	C45.578693,607.981873 44.310501,608.907898 42.609001,609.250854 
z"/>
<path fill="#000000" opacity="1.000000" stroke="none" 
	d="
M227.511169,606.090759 
	C229.478363,599.977722 229.654205,594.246033 226.751144,588.374268 
	C229.234131,586.281433 231.889755,586.599976 235.149261,588.123474 
	C232.410858,592.083862 233.010956,596.393372 233.056671,600.611816 
	C233.075531,602.353271 232.455994,604.611206 234.673904,605.408264 
	C236.709579,606.139954 238.956116,606.281311 240.650055,604.332397 
	C241.207031,603.691650 241.755295,603.077271 242.731018,603.166260 
	C245.424713,607.381042 244.683609,609.137207 239.981400,609.284180 
	C236.490448,609.393311 232.991898,609.337830 229.498688,609.263733 
	C227.688568,609.225342 225.889114,608.982361 227.511169,606.090759 
z"/>
<path fill="#000000" opacity="1.000000" stroke="none" 
	d="
M357.635193,594.469666 
	C358.101501,591.706055 356.192902,590.218933 354.987305,588.262939 
	C358.249146,586.540161 360.906769,586.262817 363.568329,588.174316 
	C360.540192,594.861816 361.134521,601.385803 363.335114,608.311890 
	C360.821106,609.965454 358.193146,609.643372 354.951752,608.115845 
	C358.726593,604.081787 357.487244,599.378662 357.635193,594.469666 
z"/>
</svg>